<?xml version="1.0" encoding="UTF-8"?>
<svg version="1.1" viewBox="0 0 2048 1150" width="1280" height="1280" xmlns="http://www.w3.org/2000/svg">
<path transform="translate(936,344)" d="m0 0h32l17 4 16 6 14 8 10 8 11 10 10 13 8 14 5 12 3 9 2 14 1 20v75l-1 20-3 17-6 15-9 16-9 11-7 8-14 11-14 8-18 7-15 3-15 1h-29l-1-1v-54l1-1 37-1 16-6 11-7 7-7 6-9 5-13 1-8v-96l-2-12-7-14-9-10-9-7-11-5-9-2h-17l-15 4-10 6-10 9-7 10-5 13-2 12-52 1-3-1v-18l4-16 7-16 8-14 11-13 7-7 12-9 14-8 16-6z" fill="#062C30"/>
<path transform="translate(938,485)" d="m0 0h41l1 1v53l-1 2-35 1-15 4-13 8-8 8-6 10-5 12-1 7v99l3 12 7 14 11 11 12 7 13 4h20l15-5 11-7 8-7 6-9 5-13 2-14h55v18l-3 14-6 15-7 13-8 11-11 12-13 10-14 8-15 6-17 4-22 1-15-1-15-4-13-5-15-8-14-11-10-10-9-12-8-14-6-15-3-15v-121l3-14 6-15 9-16 13-16 10-9 15-10 17-8 18-5z" fill="#052C30"/>
<path transform="translate(1071,583)" d="m0 0h41l4 5 13 22 51 84 12 20 2 1v-132h41v200h-41l-8-11-13-22-13-21-16-26-13-21-12-20-6-9-1 56v73l-1 1h-40z" fill="#024D52"/>
<path transform="translate(676,356)" d="m0 0h86l17 3 12 4 11 6 10 9 7 10 4 11 1 6v23l-2 11-7 14-5 6-10 8-8 5h-2l4 10 15 29 8 14 8 16 7 13v3h-44l-10-19-25-50-4-4h-33l1 34v37l-2 2h-38l-1-1zm41 34-1 6v51l1 3h41l11-3 8-6 4-5 3-12v-8l-3-12-6-8-12-6z" fill="#024D52"/>
<path transform="translate(548,354)" d="m0 0h30l15 3 13 5 12 8 8 8 8 13 4 10 4 17-2 2h-38l-3-9-7-13-8-7-12-4h-16l-13 4-9 7-6 9-5 12-3 16v40l4 21 7 14 8 8 12 6 9 2h18l13-4 8-4v-36h-34l-2-1-1-14 1-15 26-1h50l3 3v49l-1 29-5 6-10 7-15 7-19 5-14 2h-26l-20-4-16-8-10-8-10-11-8-14-5-13-5-23v-44l5-23 6-15 9-15 13-13 14-8 11-4z" fill="#034F53"/>
<path transform="translate(351,355)" d="m0 0h35l5 8 17 46 17 45 25 67 11 28 1 7-2 1h-36l-5-1-12-36-2-5h-73l-3 10-10 30-5 2-39-1 3-10 17-45 16-43 22-59 15-41zm17 53-4 8-14 43-6 18v4l5 1h44l1-3-12-36-12-35z" fill="#034E53"/>
<path transform="translate(1293,582)" d="m0 0h103l10 1v31l-1 1-8 1h-84v49h68l11 1 1 4-1 26-3 1h-76v54l93 1v30l-1 1h-133v-200z" fill="#044F54"/>
<path transform="translate(745,580)" d="m0 0h13l16 2 15 5 11 6 11 9 8 10 8 16 3 12 1 10-1 1h-38l-2-3-4-15-6-10-8-5-11-3h-19l-10 3-6 4-7 8-5 11-3 11-1 7v49l2 12 5 15 7 9 9 6 7 2h23l11-4 7-5 5-9 4-15 10-1h24l7 1-2 15-5 13-7 12-12 12-14 8-18 6-10 2h-26l-19-5-15-8-12-11-8-10-8-16-6-21-2-18v-30l2-16 6-21 8-16 7-9 5-5 9-8 15-8 15-4z" fill="#034E53"/>
<path transform="translate(1503,579)" d="m0 0 22 2 14 3 14 6 11 8 11 10 8 14 5 15 2 14-29 1-13-1-4-16-5-10-5-5-4-3-13-3h-16l-13 4-10 9-6 13-4 19-1 9v32l3 20 4 13 6 9 7 6 10 4 6 1h13l13-3 6-4 6-7 4-10 2-10 1-1h42l-1 11-8 19-7 11-11 11-11 7-12 5-16 4-6 1h-19l-15-3-11-4-11-6-10-8-8-9-8-14-6-16-3-16-2-23 1-23 3-19 4-14 8-16 8-11 7-7 13-9 10-6 3-2 18-1z" fill="#024E53"/>
<path transform="translate(1604,584)" d="m0 0h165v31l-1 1h-61v134l-1 33-2 1h-37l-1-1-1-48v-119h-60l-1-1z" fill="#014D52"/>
</svg>
